<svg version="1.1" x="0" y="0" xml:space="preserve" id="svg435" width="660" height="660" xmlns="http://www.w3.org/2000/svg"><style type="text/css" id="style2">.st25{fill:#fff}</style><g id="g1" transform="translate(-210.56 -223.873)"><path class="st25" id="polygon355" transform="translate(-1099.391 .05)" style="fill:#000;stroke:#fff;stroke-opacity:1" d="M1712.88 322.02v-36.81h-145.76v36.81h52.8v422.47h40.16V322.02z"/><g id="g359" transform="translate(-1099.391 .05)" style="stroke:#fff;stroke-opacity:1"><path class="st25" d="M1567.12 777.96v16.84h145.76v-16.84z" id="path357" style="fill:#000;stroke:#fff;stroke-opacity:1"/></g><path class="st25" id="polygon361" transform="translate(-1099.391 .05)" style="fill:#000;stroke:#fff;stroke-opacity:1" d="m1927.89 556.18-138.26 239.5h36.18l138.25-239.5z"/><path id="polygon363" transform="translate(-1099.391 .05)" d="m1825.81 284.32 138.25 239.5h-36.17l-138.26-239.5z" style="fill:#2bd82b"/><path id="polygon365" transform="translate(-1099.391 .05)" d="m1352.11 556.18 138.26 239.5h-36.18l-138.25-239.5z" style="fill:#f21443"/><path id="polygon367" transform="translate(-1099.391 .05)" d="m1454.19 284.32-138.25 239.5h36.17l138.26-239.5z" style="fill:#29abe2"/></g></svg>